<?xml version="1.0" encoding="UTF-8"?>
<svg width="65px" height="64px" viewBox="0 0 65 64" version="1.1" xmlns="http://www.w3.org/2000/svg" xmlns:xlink="http://www.w3.org/1999/xlink">
    <!-- Generator: Sketch 51.2 (57519) - http://www.bohemiancoding.com/sketch -->
    <title>Fill 1</title>
    <desc>Created with Sketch.</desc>
    <defs></defs>
    <g id="Symbols" stroke="none" stroke-width="1" fill="none" fill-rule="evenodd">
        <g id="Footer" transform="translate(-1258.000000, -143.000000)" fill="#FDD835">
            <g id="footer">
                <path d="M1290.02501,165.003559 L1259.21123,143.142093 C1258.69869,142.777625 1258,143.156566 1258,143.79866 L1258,150.047237 C1258,150.31039 1258.12495,150.556439 1258.33532,150.703805 L1290.04796,173.202102 C1290.31316,173.391572 1290.6625,173.390257 1290.9277,173.19947 L1314.67425,156.139238 C1315.18552,155.770823 1315.88803,156.149764 1315.88803,156.793174 L1315.88803,199.001658 C1315.88803,199.44244 1315.54124,199.799013 1315.11539,199.799013 L1308.50333,199.799013 C1308.07621,199.799013 1307.73069,199.44244 1307.73069,199.001658 L1307.72687,172.371853 C1307.72687,171.735022 1307.03965,171.354765 1306.52583,171.707391 L1290.56305,182.665097 C1290.30168,182.845357 1289.96126,182.844041 1289.70117,182.66115 L1259.37443,161.440462 C1258.86189,161.081258 1258.1683,161.460199 1258.1683,162.099661 L1258.1683,206.080484 C1258.1683,206.521265 1258.51382,206.879154 1258.94094,206.879154 L1278.3959,206.879154 C1278.82301,206.879154 1279.16853,206.521265 1279.16853,206.080484 L1279.16853,193.528068 C1279.16853,193.262283 1279.04104,193.013603 1278.82684,192.864921 L1273.83911,189.413665 C1273.32529,189.058408 1272.63552,189.437349 1272.63552,190.075496 L1272.63552,199.338494 C1272.63552,199.77796 1272.28873,200.135849 1271.86288,200.135849 L1265.47522,200.135849 C1265.0481,200.135849 1264.70258,199.77796 1264.70258,199.338494 L1264.70258,174.819179 C1264.70258,174.179717 1265.39617,173.800776 1265.90872,174.158664 L1274.038,179.84804 L1274.03928,179.845409 L1283.90637,186.674238 L1283.87067,186.728185 L1289.66674,190.784694 C1289.92684,190.96627 1290.26726,190.967586 1290.52863,190.788641 L1299.99282,184.291385 C1300.50664,183.938759 1301.19386,184.3177 1301.19386,184.954531 L1301.19641,205.744963 C1301.19641,206.184429 1301.5432,206.542318 1301.97032,206.542318 L1321.6484,206.542318 C1322.07552,206.542318 1322.42232,206.184429 1322.42232,205.743647 L1322.42232,143.88287 C1322.42232,143.238144 1321.7198,142.859203 1321.20726,143.227618 L1290.90347,165.000927 C1290.63955,165.190398 1290.29021,165.191713 1290.02501,165.003559" id="Fill-1"></path>
            </g>
        </g>
    </g>
</svg>