<?xml version="1.0" encoding="UTF-8"?>
<svg width="36px" height="36px" viewBox="0 0 36 36" version="1.1" xmlns="http://www.w3.org/2000/svg" xmlns:xlink="http://www.w3.org/1999/xlink">
    <!-- Generator: Sketch 51.2 (57519) - http://www.bohemiancoding.com/sketch -->
    <title>Group 13</title>
    <desc>Created with Sketch.</desc>
    <defs></defs>
    <g id="Home" stroke="none" stroke-width="1" fill="none" fill-rule="evenodd">
        <g id="Resources-Home-Page-Alt-2" transform="translate(-655.000000, -980.000000)">
            <g id="Group-12" transform="translate(135.000000, 549.000000)">
                <g id="Group-10" transform="translate(30.000000, 30.000000)">
                    <g id="Group-9" transform="translate(490.000000, 30.000000)">
                        <g id="Group-8">
                            <g id="Group-5" transform="translate(0.000000, 369.000000)">
                                <g id="Group-7">
                                    <g id="Group-13" transform="translate(0.000000, 2.000000)">
                                        <circle id="Oval" fill="#3949AB" cx="18" cy="18" r="18"></circle>
                                        <path d="M18.4508897,15.6264971 L10.319515,10.0362621 C10.184185,9.94314825 10,10.0401773 10,10.2042755 L10,11.8020205 C10,11.86926 10.0331941,11.9320735 10.0885177,11.970034 L18.4568476,17.7230055 C18.5268107,17.7711795 18.6192436,17.7710093 18.6888662,17.7224948 L24.9552405,13.3597623 C25.0905705,13.2656271 25.2757768,13.3623157 25.2757768,13.5270949 L25.2757768,24.3197892 C25.2757768,24.4324791 25.1845354,24.5238906 25.0718456,24.5238906 L23.3271952,24.5238906 C23.2145053,24.5238906 23.1232639,24.4324791 23.1230937,24.3199594 L23.1220724,17.5103927 C23.1220724,17.3476562 22.9407812,17.250457 22.805281,17.340677 L18.5928585,20.1426035 C18.5239168,20.1885647 18.4340373,20.1882242 18.365436,20.1415822 L10.3627525,14.715105 C10.2272522,14.6233529 10.0442589,14.720382 10.0442589,14.8839695 L10.0442589,26.130147 C10.0442589,26.2428368 10.1356704,26.3340782 10.2481901,26.3340782 L15.3823886,26.3340782 C15.4949082,26.3340782 15.5863198,26.2428368 15.5863198,26.130147 L15.5863198,22.9201877 C15.5863198,22.8520972 15.5524448,22.7886027 15.4959296,22.7508124 L14.1795688,21.8680183 C14.0440686,21.7772877 13.8620966,21.8743167 13.8620966,22.0373936 L13.8620966,24.4059237 C13.8620966,24.5186136 13.770685,24.609855 13.6581654,24.609855 L11.9724133,24.609855 C11.8598937,24.609855 11.7684821,24.5186136 11.7684821,24.4059237 L11.7684821,18.1364854 C11.7684821,17.9728978 11.9514755,17.8758688 12.0869757,17.9676208 L14.2321688,19.4222054 L14.2325092,19.4216947 L16.8362923,21.1677069 L16.8269298,21.1816655 L18.356414,22.2188549 C18.4250153,22.2653267 18.5148948,22.2656672 18.5838365,22.2197061 L21.0813983,20.5582964 C21.2168985,20.4680764 21.3981896,20.5652757 21.3981896,20.7280121 L21.3988705,26.0441826 C21.3990407,26.1567023 21.4902821,26.2479436 21.602972,26.2479436 L26.7958985,26.2479436 C26.9087586,26.2479436 27,26.1567023 27,26.0440124 L27,10.2255538 C27,10.0609449 26.8147937,9.9640861 26.6794637,10.0582213 L18.6829083,15.625646 C18.6132857,15.6741605 18.5208527,15.6745009 18.4508897,15.6264971" id="Fill-1" fill="#FDD835"></path>
                                    </g>
                                </g>
                            </g>
                        </g>
                    </g>
                </g>
            </g>
        </g>
    </g>
</svg>